<?xml version="1.0" encoding="UTF-8" standalone="no"?>
<svg
   xmlns:dc="http://purl.org/dc/elements/1.1/"
   xmlns:cc="http://creativecommons.org/ns#"
   xmlns:rdf="http://www.w3.org/1999/02/22-rdf-syntax-ns#"
   xmlns:svg="http://www.w3.org/2000/svg"
   xmlns="http://www.w3.org/2000/svg"
   xmlns:sodipodi="http://sodipodi.sourceforge.net/DTD/sodipodi-0.dtd"
   xmlns:inkscape="http://www.inkscape.org/namespaces/inkscape"
   height="95.726959"
   width="707.00464"
   version="1.1"
   id="svg13"
   sodipodi:docname="logo.svg"
   inkscape:version="0.92.4 (f8dce91, 2019-08-02)">
  <metadata
     id="metadata17">
    <rdf:RDF>
      <cc:Work
         rdf:about="">
        <dc:format>image/svg+xml</dc:format>
        <dc:type
           rdf:resource="http://purl.org/dc/dcmitype/StillImage" />
        <dc:title></dc:title>
      </cc:Work>
    </rdf:RDF>
  </metadata>
  <sodipodi:namedview
     pagecolor="#ffffff"
     bordercolor="#666666"
     borderopacity="1"
     objecttolerance="10"
     gridtolerance="10"
     guidetolerance="10"
     inkscape:pageopacity="0"
     inkscape:pageshadow="2"
     inkscape:window-width="1920"
     inkscape:window-height="954"
     id="namedview15"
     showgrid="false"
     fit-margin-top="0"
     fit-margin-left="0"
     fit-margin-right="0"
     fit-margin-bottom="0"
     inkscape:zoom="0.42048248"
     inkscape:cx="-131.62621"
     inkscape:cy="348.67183"
     inkscape:window-x="0"
     inkscape:window-y="33"
     inkscape:window-maximized="1"
     inkscape:current-layer="svg13" />
  <defs
     id="defs5">
    <clipPath
       id="a"
       clipPathUnits="userSpaceOnUse">
      <path
         d="M 0,841.89 H 595.276 V 0 H 0 Z"
         id="path2"
         inkscape:connector-curvature="0" />
    </clipPath>
  </defs>
  <g
     clip-path="url(#a)"
     transform="matrix(1.33333,0,0,-1.33333,-37.634173,616.66819)"
     id="g11">
    <path
       d="m 99.5737,392.2012 c -9.042,0 -11.102,4.017 -11.102,10.37 v 18.961 c 0,6.631 -2.148,9.06 -7.072,9.06 -4.744,0 -6.355,-3.642 -6.355,-8.78 v -29.611 h -5.908 c -6.895,0 -10.564,2.334 -10.564,10.37 v 19.427 c 0,6.072 -2.238,8.594 -6.714,8.594 -4.744,0 -6.624,-2.522 -6.624,-8.874 v -29.517 h -5.909 c -7.609,0 -11.1,3.829 -11.1,10.37 v 18.026 c 0,14.946 8.235,24.473 23.901,24.473 7.699,0 13.518,-4.951 15.129,-9.154 2.329,3.923 8.326,9.154 15.398,9.154 14.323,0 22.828,-8.874 22.828,-24.939 v -27.93 z m 42.7061,21.1113 h -3.401 c -6.445,0 -9.041,-1.681 -9.041,-5.138 0,-3.269 1.97,-4.949 6.713,-4.949 3.043,0 5.729,1.587 5.729,6.256 z m -7.519,-22.513 c -9.488,0 -21.038,4.671 -21.038,16.348 0,11.395 7.879,17.186 25.783,17.186 h 2.417 v 2.149 c 0,4.203 -3.134,5.23 -9.848,5.23 -9.22,0 -12.623,-2.242 -16.113,-5.603 h -0.447 v 6.257 c 0,6.352 6.356,12.703 20.41,12.703 13.607,0 22.47,-7.192 22.47,-22.323 v -7.94 c 0,-18.682 -5.73,-24.007 -23.634,-24.007 m 103.6689,1.4017 c -9.042,0 -11.101,4.017 -11.101,10.37 v 18.961 c 0,6.631 -2.149,9.06 -7.073,9.06 -4.744,0 -6.355,-3.642 -6.355,-8.78 v -29.611 h -5.908 c -6.894,0 -10.564,2.334 -10.564,10.37 v 19.427 c 0,6.072 -2.238,8.594 -6.715,8.594 -4.743,0 -6.623,-2.522 -6.623,-8.874 v -29.517 h -5.908 c -7.61,0 -11.101,3.829 -11.101,10.37 v 18.026 c 0,14.946 8.236,24.473 23.901,24.473 7.699,0 13.518,-4.951 15.13,-9.154 2.328,3.923 8.324,9.154 15.397,9.154 14.324,0 22.828,-8.874 22.828,-24.939 v -27.93 z m 42.708,21.1113 h -3.403 c -6.445,0 -9.041,-1.681 -9.041,-5.138 0,-3.269 1.969,-4.949 6.714,-4.949 3.043,0 5.73,1.587 5.73,6.256 z m -7.521,-22.513 c -9.488,0 -21.037,4.671 -21.037,16.348 0,11.395 7.878,17.186 25.781,17.186 h 2.419 v 2.149 c 0,4.203 -3.135,5.23 -9.848,5.23 -9.221,0 -12.622,-2.242 -16.113,-5.603 h -0.448 v 6.257 c 0,6.352 6.356,12.703 20.41,12.703 13.607,0 22.47,-7.192 22.47,-22.323 v -7.94 c 0,-18.682 -5.729,-24.007 -23.634,-24.007"
       id="path7"
       inkscape:connector-curvature="0"
       style="fill:#00aeef" />
    <path
       d="m 330.1992,431.8999 c -5.998,0 -8.505,-4.017 -8.952,-8.967 h 6.622 c 8.059,0 9.491,1.308 9.491,3.55 0,2.615 -2.239,5.417 -7.161,5.417 m -1.164,-20.363 h -7.341 c 0.984,-5.137 5.013,-7.565 12.085,-7.565 7.878,0 12.8,1.306 15.576,3.269 h 0.626 v -4.109 c 0,-6.541 -5.101,-12.425 -19.157,-12.425 -17.009,0 -25.959,11.957 -25.959,26.153 0,15.6 10.112,28.304 25.334,28.304 12.891,0 22.916,-7.567 22.916,-20.643 0,-10.275 -7.431,-12.984 -24.08,-12.984 m 59.4453,1.7756 h -3.403 c -6.446,0 -9.042,-1.681 -9.042,-5.138 0,-3.269 1.97,-4.949 6.716,-4.949 3.042,0 5.729,1.587 5.729,6.256 z m -7.521,-22.513 c -9.492,0 -21.038,4.671 -21.038,16.348 0,11.395 7.877,17.186 25.781,17.186 h 2.419 v 2.149 c 0,4.203 -3.134,5.23 -9.846,5.23 -9.223,0 -12.625,-2.242 -16.116,-5.603 h -0.448 v 6.257 c 0,6.352 6.357,12.703 20.412,12.703 13.607,0 22.468,-7.192 22.468,-22.323 v -7.94 c 0,-18.682 -5.729,-24.007 -23.632,-24.007 M 443.54,430.312 c -2.15,0.841 -3.763,1.027 -5.998,1.027 -4.119,0 -7.342,-2.149 -7.342,-8.406 v -30.732 h -4.655 c -7.342,0 -11.819,3.551 -11.819,12.144 v 22.324 c 0,10.368 6.715,18.588 17.907,18.588 8.503,0 12.442,-3.642 12.442,-8.407 v -6.538 z m 11.5479,22.3237 c 2.238,1.775 5.281,3.456 8.862,3.456 h 1.791 v -12.517 h 14.414 v -6.257 c 0,-4.39 -4.478,-7.753 -8.326,-7.753 h -6.088 v -18.588 c 0,-3.455 2.059,-5.511 5.37,-5.511 4.029,0 5.91,0.375 7.7,1.121 h 0.448 v -6.914 c 0,-4.295 -3.761,-8.218 -12.623,-8.218 -8.415,0 -17.456,4.203 -17.456,18.308 v 31.852 c 0,4.67 2.596,8.407 5.908,11.021 m 74.5723,-60.4345 c -8.952,0 -10.472,4.39 -10.472,10.743 v 17.187 c 0,7.285 -2.508,10.554 -7.34,10.554 -6.625,0 -8.238,-3.643 -8.238,-10.928 v -27.556 h -5.728 c -8.147,0 -11.28,3.551 -11.28,10.743 v 58.379 h 5.46 c 7.074,0 11.103,-3.55 11.103,-10.182 v -13.263 c 2.505,4.11 6.623,7.192 14.411,7.192 9.937,0 18.621,-8.034 18.621,-21.95 v -30.919 z m 14.0078,67.9062 h -1.413 v -7.996 h -1.198 c -0.823,0 -1.543,0.392 -1.543,1.491 v 6.505 h -2.845 v 0.994 c 0,0.632 0.534,1.385 1.545,1.385 h 6.985 v -0.994 c 0,-0.647 -0.693,-1.385 -1.531,-1.385 m 13.6445,-7.9961 c -0.953,0 -1.645,0.542 -1.645,1.626 0,0.934 -0.085,3.6 -0.247,5.135 l -1.371,-4.366 c -0.202,-0.633 -0.62,-1.748 -0.994,-2.395 h -0.765 c -0.939,0 -1.676,0.738 -2.296,2.846 l -0.505,1.733 c -0.244,0.857 -0.547,1.776 -0.706,2.213 -0.174,-1.777 -0.304,-5.075 -0.304,-6.792 h -1.023 c -0.838,0 -1.602,0.604 -1.602,1.626 0,2.982 0.388,6.582 0.866,8.765 h 0.951 c 1.587,0 2.396,-0.784 2.755,-1.702 l 0.782,-2.018 c 0.331,-0.873 0.75,-2.063 0.966,-2.936 0.217,0.768 0.52,1.687 0.824,2.439 l 0.952,2.379 c 0.359,0.889 0.837,1.521 1.198,1.838 h 0.504 c 1.444,0 2.135,-0.829 2.323,-2.32 0.26,-2.032 0.505,-5.225 0.505,-8.071 z"
       id="path9"
       inkscape:connector-curvature="0"
       style="fill:#83bd41" />
  </g>
</svg>
